<svg width="20" height="23" viewBox="0 0 20 23" fill="none" xmlns="http://www.w3.org/2000/svg">
<path d="M17.25 5H2.75C1.234 5 0 6.234 0 7.75V14H2.325L3.6065 11.8645C3.7505 11.6245 4.012 11.4865 4.2955 11.5015C4.575 11.5185 4.8215 11.6895 4.935 11.9455L6.2575 14.9205L8.067 10.9395C8.193 10.6615 8.4735 10.4835 8.781 10.5005C9.086 10.513 9.3535 10.71 9.4565 10.9975L11.365 16.3425L12.579 13.9145C12.706 13.6605 12.966 13.5 13.25 13.5H14.25C14.252 13.5 14.2535 13.5005 14.255 13.5005C14.4835 13.198 14.842 13 15.25 13C15.9405 13 16.5 13.5595 16.5 14.25C16.5 14.9405 15.9405 15.5 15.25 15.5C14.842 15.5 14.4835 15.302 14.255 14.9995C14.253 14.9995 14.2515 15 14.25 15H13.7135L11.921 18.5855C11.7935 18.8405 11.5325 19 11.25 19C11.2355 19 11.22 18.9995 11.2045 18.9985C10.9045 18.9805 10.6445 18.785 10.5435 18.5025L8.6665 13.246L6.9325 17.0605C6.8105 17.329 6.5455 17.488 6.247 17.5C5.9515 17.4985 5.6845 17.324 5.5645 17.0545L4.151 13.873L3.393 15.1355C3.258 15.362 3.0135 15.5 2.75 15.5H0V20.25C0 21.766 1.234 23 2.75 23H17.25C18.766 23 20 21.766 20 20.25V7.75C20 6.234 18.766 5 17.25 5Z" fill="#FF007B"/>
</svg>
