<svg width="16" height="16" viewBox="0 0 16 16" fill="none" xmlns="http://www.w3.org/2000/svg">
<path d="M8 0C3.5888 0 0 3.5888 0 8C0 12.4112 3.5888 16 8 16C12.4112 16 16 12.4112 16 8C16 3.5888 12.4112 0 8 0ZM8 12.8C7.558 12.8 7.2 12.442 7.2 12C7.2 11.558 7.558 11.2 8 11.2C8.442 11.2 8.8 11.558 8.8 12C8.8 12.442 8.442 12.8 8 12.8ZM9.196 8.3908C8.7992 8.7 8.6 8.8552 8.6 9.4C8.6 9.7316 8.3316 10 8 10C7.6684 10 7.4 9.7316 7.4 9.4C7.4 8.2688 8.0116 7.7924 8.4584 7.4444C8.8888 7.1088 9.2 6.8664 9.2 6C9.2 5.3384 8.6616 4.8 8 4.8C7.3384 4.8 6.8 5.3384 6.8 6V6.2C6.8 6.5316 6.5316 6.8 6.2 6.8C5.8684 6.8 5.6 6.5316 5.6 6.2V6C5.6 4.6764 6.6764 3.6 8 3.6C9.3236 3.6 10.4 4.6764 10.4 6C10.4 7.4524 9.704 7.9948 9.196 8.3908Z" fill="black" fill-opacity="0.6"/>
</svg>
