<svg width="20" height="24" viewBox="0 0 20 24" fill="none" xmlns="http://www.w3.org/2000/svg">
<path d="M15.4572 4.00009C15.268 4.00304 15.0877 4.08097 14.9559 4.21674C14.8242 4.35252 14.7517 4.53505 14.7544 4.72423V5.43815H14.0405C13.9459 5.43681 13.8519 5.45429 13.7642 5.48956C13.6764 5.52484 13.5965 5.57722 13.5291 5.64364C13.4617 5.71007 13.4082 5.78922 13.3717 5.8765C13.3352 5.96378 13.3164 6.05745 13.3164 6.15206C13.3164 6.24668 13.3352 6.34035 13.3717 6.42763C13.4082 6.51491 13.4617 6.59406 13.5291 6.66049C13.5965 6.72691 13.6764 6.77929 13.7642 6.81457C13.8519 6.84984 13.9459 6.86732 14.0405 6.86598H14.7544V7.5799C14.7531 7.6745 14.7705 7.76843 14.8058 7.85622C14.8411 7.94401 14.8935 8.02391 14.9599 8.09128C15.0263 8.15865 15.1055 8.21215 15.1928 8.24867C15.28 8.28518 15.3737 8.30398 15.4683 8.30398C15.5629 8.30398 15.6566 8.28518 15.7439 8.24867C15.8312 8.21215 15.9103 8.15865 15.9768 8.09128C16.0432 8.02391 16.0956 7.94401 16.1308 7.85622C16.1661 7.76843 16.1836 7.6745 16.1822 7.5799V6.86598H16.8962C16.9908 6.86732 17.0847 6.84984 17.1725 6.81457C17.2603 6.77929 17.3402 6.72691 17.4076 6.66049C17.4749 6.59406 17.5284 6.51491 17.5649 6.42763C17.6015 6.34035 17.6203 6.24668 17.6203 6.15206C17.6203 6.05745 17.6015 5.96378 17.5649 5.8765C17.5284 5.78922 17.4749 5.71007 17.4076 5.64364C17.3402 5.57722 17.2603 5.52484 17.1725 5.48956C17.0847 5.45429 16.9908 5.43681 16.8962 5.43815H16.1822V4.72423C16.1836 4.62868 16.1658 4.53382 16.1298 4.44528C16.0939 4.35675 16.0405 4.27633 15.9729 4.2088C15.9053 4.14127 15.8248 4.088 15.7362 4.05215C15.6476 4.0163 15.5527 3.99859 15.4572 4.00009ZM9.28099 5.43815C4.1636 5.43815 0 9.60171 0 14.7191C0 19.8364 4.1636 24 9.28099 24C12.6126 24 15.7053 22.19 17.3526 19.2777C17.4697 19.0707 17.4755 18.8184 17.3684 18.6056C17.2613 18.3929 17.0556 18.2475 16.819 18.218C12.6578 17.704 9.51897 14.1541 9.51897 9.95962C9.51897 8.75406 9.77974 7.58034 10.2942 6.47091C10.3942 6.25436 10.3794 6.00253 10.2552 5.79882C10.131 5.5956 9.91311 5.46766 9.67514 5.45767L9.55522 5.45023C9.46432 5.44404 9.37333 5.43815 9.28099 5.43815ZM17.8369 10.1874C17.6477 10.1903 17.4675 10.2683 17.3357 10.404C17.2039 10.5398 17.1314 10.7223 17.1341 10.9115V11.6254H16.4202C16.3256 11.6241 16.2317 11.6416 16.1439 11.6768C16.0561 11.7121 15.9762 11.7645 15.9088 11.8309C15.8415 11.8974 15.788 11.9765 15.7514 12.0638C15.7149 12.1511 15.6961 12.2447 15.6961 12.3393C15.6961 12.434 15.7149 12.5276 15.7514 12.6149C15.788 12.7022 15.8415 12.7813 15.9088 12.8478C15.9762 12.9142 16.0561 12.9666 16.1439 13.0018C16.2317 13.0371 16.3256 13.0546 16.4202 13.0533H17.1341V13.7672C17.1328 13.8618 17.1503 13.9557 17.1856 14.0435C17.2208 14.1313 17.2732 14.2112 17.3396 14.2786C17.4061 14.3459 17.4852 14.3994 17.5725 14.436C17.6598 14.4725 17.7535 14.4913 17.8481 14.4913C17.9427 14.4913 18.0363 14.4725 18.1236 14.436C18.2109 14.3994 18.2901 14.3459 18.3565 14.2786C18.4229 14.2112 18.4753 14.1313 18.5106 14.0435C18.5458 13.9557 18.5633 13.8618 18.562 13.7672V13.0533H19.2759C19.3705 13.0546 19.4644 13.0371 19.5522 13.0018C19.64 12.9666 19.7199 12.9142 19.7873 12.8478C19.8547 12.7813 19.9082 12.7022 19.9447 12.6149C19.9812 12.5276 20 12.434 20 12.3393C20 12.2447 19.9812 12.1511 19.9447 12.0638C19.9082 11.9765 19.8547 11.8974 19.7873 11.8309C19.7199 11.7645 19.64 11.7121 19.5522 11.6768C19.4644 11.6416 19.3705 11.6241 19.2759 11.6254H18.562V10.9115C18.5634 10.816 18.5455 10.7211 18.5096 10.6326C18.4736 10.544 18.4202 10.4636 18.3526 10.3961C18.285 10.3286 18.2045 10.2753 18.1159 10.2394C18.0273 10.2036 17.9325 10.1859 17.8369 10.1874Z" fill="#A868E3"/>
</svg>
